<svg class="svg-icon" style="width: 1em; height: 1em;vertical-align: middle;fill: currentColor;overflow: hidden;" viewBox="0 0 1024 1024" version="1.1" xmlns="http://www.w3.org/2000/svg"><path d="M362.2 412c13.8 0 25-11.2 25-25v-50c0-13.8-11.2-25-25-25h-100c-13.8 0-25 11.2-25 25v50c0 13.8 11.2 25 25 25h100z" fill="#465A63" /><path d="M237.4 362.2v25c0 13.8 11.2 25 25 25h100c13.8 0 25-11.2 25-25v-25h-150z" fill="#3D4F57" /><path d="M362.2 561.8c13.8 0 25-11.2 25-25v-50c0-13.8-11.2-25-25-25h-100c-13.8 0-25 11.2-25 25v50c0 13.8 11.2 25 25 25h100z" fill="#465A63" /><path d="M237.4 512v25c0 13.8 11.2 25 25 25h100c13.8 0 25-11.2 25-25V512h-150z" fill="#3D4F57" /><path d="M362.2 62.4h349.6v150H362.2z" fill="#465A63" /><path d="M661.8 62.4h50v149.8h-50z" fill="#3D4F57" /><path d="M362.2 62.4h50v149.8h-50z" fill="#5A7480" /><path d="M362.2 811.8h349.6v149.8H362.2z" fill="#465A63" /><path d="M661.8 811.8h50v149.8h-50z" fill="#3D4F57" /><path d="M362.2 811.8h50v149.8h-50z" fill="#5A7480" /><path d="M737.2 212.6c27.4 0 49.4 22.2 49.4 49.4v499.8c0 27.4-22.2 49.4-49.4 49.4h-400c-27.4 0-49.4-22.2-49.4-49.4V262c0-27.4 22.2-49.4 49.4-49.4h400z" fill="#ECEFF1" /><path d="M737.2 212.6h-50c27.4 0 49.4 22.2 49.4 49.4v499.8c0 27.4-22.2 49.4-49.4 49.4h50c27.4 0 49.4-22.2 49.4-49.4V262c0-27.4-22.2-49.4-49.4-49.4z" fill="#D0D5D9" /><path d="M362.2 287.2h349.6v449.6H362.2z" fill="#39C6D9" /><path d="M661.8 287.2h50v449.6h-50z" fill="#12A5C9" /><path d="M619.8 379.2c-22.8-22.8-60-22.8-82.8 0-22.8-22.8-60-22.8-82.8 0s-22.8 60 0 82.8l82.8 82.8 82.8-82.8c23-22.8 23-59.8 0-82.8z" fill="#EC5353" /><path d="M537 379.2v165.6l82.8-82.8c22.8-22.8 22.8-60 0-82.8-22.8-22.8-59.8-22.8-82.8 0z" fill="#D14545" /><path d="M438.8 150h-25c-6.8 0-12.4 5.6-12.4 12.4 0 6.8 5.6 12.4 12.4 12.4h25c6.8 0 12.4-5.6 12.4-12.4 0-6.8-5.6-12.4-12.4-12.4zM560.6 150h-84.2c-6.8 0-12.4 5.6-12.4 12.4 0 6.8 5.6 12.4 12.4 12.4h84.2c6.8 0 12.4-5.6 12.4-12.4 0-6.8-5.6-12.4-12.4-12.4zM462.2 674.4h-50c-6.8 0-12.4-5.6-12.4-12.4v-50c0-6.8 5.6-12.4 12.4-12.4h50c6.8 0 12.4 5.6 12.4 12.4v50c0 6.8-5.6 12.4-12.4 12.4z m-37.4-25h25v-25h-25v25zM562 674.4h-50c-6.8 0-12.4-5.6-12.4-12.4v-50c0-6.8 5.6-12.4 12.4-12.4h50c6.8 0 12.4 5.6 12.4 12.4v50c0.2 6.8-5.4 12.4-12.4 12.4z m-37.4-25h25v-25h-25v25zM662 674.4h-50c-6.8 0-12.4-5.6-12.4-12.4v-50c0-6.8 5.6-12.4 12.4-12.4h50c6.8 0 12.4 5.6 12.4 12.4v50c0 6.8-5.6 12.4-12.4 12.4z m-37.4-25h25v-25h-25v25z" fill="#ECEFF1" /><path d="M737.2 200h-12.8V62.4c0-6.8-5.6-12.4-12.4-12.4H362.2c-6.8 0-12.4 5.6-12.4 12.4V200h-12.8c-34.2 0-62 27.8-62 62v37.8h-12.8c-20.6 0-37.4 16.8-37.4 37.4v50c0 20.6 16.8 37.4 37.4 37.4h12.8v24.8h-12.8c-20.6 0-37.4 16.8-37.4 37.4v50c0 20.6 16.8 37.4 37.4 37.4h12.8v187.4c0 34.2 27.8 62 62 62h12.8v137.8c0 6.8 5.6 12.4 12.4 12.4H712c6.8 0 12.4-5.6 12.4-12.4v-137.8h12.8c34.2 0 62-27.8 62-62V262c-0.2-34.2-27.8-62-62-62z m-474.8 199.6c-6.8 0-12.4-5.6-12.4-12.4v-50c0-6.8 5.6-12.4 12.4-12.4h12.8v75h-12.8z m0 149.8c-6.8 0-12.4-5.6-12.4-12.4v-50c0-6.8 5.6-12.4 12.4-12.4h12.8v75h-12.8z m112.4 399.6v-31.2h37.4c3.4 0 6.2-2.8 6.2-6.2 0-3.4-2.8-6.2-6.2-6.2h-37.4v-81.2h324.6v81.2H437.2c-3.4 0-6.2 2.8-6.2 6.2 0 3.4 2.8 6.2 6.2 6.2h262.2v31.2H374.8z m0-830.4h37.4c3.4 0 6.2-2.8 6.2-6.2 0-3.4-2.8-6.2-6.2-6.2h-37.4V75h324.6v31.2H437.2c-3.4 0-6.2 2.8-6.2 6.2s2.8 6.2 6.2 6.2h262.2V200H374.8V118.6z m399.4 643.2c0 20.4-16.6 37-37 37h-400c-20.4 0-37-16.6-37-37V262c0-20.4 16.6-37 37-37h400c20.4 0 37 16.6 37 37v499.8z" fill="#17171D" /><path d="M528.2 553.6c2.4 2.4 5.6 3.6 8.8 3.6s6.4-1.2 8.8-3.6l82.8-82.8c13.4-13.4 20.8-31.2 20.8-50.2 0-19-7.4-36.8-20.8-50.2-13.4-13.4-31.2-20.8-50.2-20.8-15 0-29.4 4.6-41.4 13.2-12-8.6-26.4-13.2-41.4-13.2-19 0-36.8 7.4-50.2 20.8-13.4 13.4-20.8 31.2-20.8 50.2 0 19 7.4 36.8 20.8 50.2l82.8 82.8z m-65-165.4c9-9 20.8-13.4 32.6-13.4s23.6 4.4 32.6 13.4c4.8 4.8 12.8 4.8 17.6 0 8.6-8.6 20.2-13.4 32.6-13.4 12.2 0 23.8 4.8 32.6 13.4 8.6 8.6 13.4 20.2 13.4 32.6 0 12.2-4.8 23.8-13.4 32.6l-74 74-74-74c-8.6-8.6-13.4-20.2-13.4-32.6-0.2-12.4 4.6-24 13.4-32.6z" fill="#17171D" /><path d="M737 368.4c3.4 0 6.2-2.8 6.2-6.2s-2.8-6.2-6.2-6.2h-12.4v-68.6c0-6.8-5.6-12.4-12.4-12.4h-350c-6.8 0-12.4 5.6-12.4 12.4V356h-12.4c-3.4 0-6.2 2.8-6.2 6.2s2.8 6.2 6.2 6.2h12.4v287h-12.4c-3.4 0-6.2 2.8-6.2 6.2s2.8 6.2 6.2 6.2h12.4v69c0 6.8 5.6 12.4 12.4 12.4H712c6.8 0 12.4-5.6 12.4-12.4v-68.6h12.4c3.4 0 6.2-2.8 6.2-6.2s-2.8-6.2-6.2-6.2h-12.4V368.4h12.6z m-37.6 355.8H374.8V299.8h324.6v424.4z" fill="#17171D" /></svg>